<?xml version="1.0" encoding="UTF-8" standalone="no"?>
<svg
   xmlns:dc="http://purl.org/dc/elements/1.1/"
   xmlns:cc="http://creativecommons.org/ns#"
   xmlns:rdf="http://www.w3.org/1999/02/22-rdf-syntax-ns#"
   xmlns:svg="http://www.w3.org/2000/svg"
   xmlns="http://www.w3.org/2000/svg"
   version="1.1"
   id="svg4295"
   viewBox="0 0 744.09448819 1052.3622047"
   height="297mm"
   width="210mm">
  <defs
     id="defs4297" />
  <metadata
     id="metadata4300">
    <rdf:RDF>
      <cc:Work
         rdf:about="">
        <dc:format>image/svg+xml</dc:format>
        <dc:type
           rdf:resource="http://purl.org/dc/dcmitype/StillImage" />
        <dc:title></dc:title>
      </cc:Work>
    </rdf:RDF>
  </metadata>
  <g
     id="g4206"
     style="display:inline">
    <rect
       y="797.25159"
       x="155.92317"
       height="68.437836"
       width="6.8185296"
       id="rect4250"
       style="color:#000000;clip-rule:nonzero;display:inline;overflow:visible;visibility:visible;opacity:1;isolation:auto;mix-blend-mode:normal;color-interpolation:sRGB;color-interpolation-filters:linearRGB;solid-color:#000000;solid-opacity:1;fill:#ff0000;fill-opacity:1;fill-rule:nonzero;stroke:none;stroke-width:0.99999988;stroke-linecap:butt;stroke-linejoin:round;stroke-miterlimit:4;stroke-dasharray:none;stroke-dashoffset:0;stroke-opacity:1;color-rendering:auto;image-rendering:auto;shape-rendering:auto;text-rendering:auto;enable-background:accumulate" />
    <path
       id="path4208"
       d="m 353.47406,1051.7403 -59.42383,-85.30867 35.50586,-4.3086 -57.88868,-55.7207 48.36915,-8.88086 -71.39844,-51.14648 34.85742,-8.87891 -61.56641,-51.14648 29.4336,-8.88282 -46.33008,-51.14648 112.20508,-17.56836 0,-25.77344 0,-2.27343 46.46484,0 46.4668,0 0,2.27343 0,25.77344 112.20508,17.56836 -46.33008,51.14648 29.43164,8.88282 -61.56641,51.14648 34.85938,8.87891 -71.40039,51.14648 48.36914,8.88086 -57.88867,55.7207 35.50585,4.3086 -59.42187,85.30867 -0.75781,0 0,-85.5743 c 0.87482,-1.40866 0.88672,-2.74219 0.88672,-2.74219 l 0,-22.21679 2,-0.10742 0,-6.10938 -4.88672,0 -2,-68.00586 -12.94532,0 0,68.00586 -4.88476,0 0,6.10938 2,0.10742 0,22.21679 c 0,0 0.0116,1.33226 0.88476,2.74024 l 0,85.57625 z"
       style="color:#000000;clip-rule:nonzero;display:inline;overflow:visible;visibility:visible;opacity:1;isolation:auto;mix-blend-mode:normal;color-interpolation:sRGB;color-interpolation-filters:linearRGB;solid-color:#000000;solid-opacity:1;fill:#ffffff;fill-opacity:1;fill-rule:nonzero;stroke:#000000;stroke-width:0.99999988;stroke-linecap:butt;stroke-linejoin:round;stroke-miterlimit:4;stroke-dasharray:none;stroke-dashoffset:0;stroke-opacity:1;color-rendering:auto;image-rendering:auto;shape-rendering:auto;text-rendering:auto;enable-background:accumulate" />
    <g
       style="fill:none"
       id="g4212"
       transform="matrix(1,0,0,-1,-217.90051,1056.1939)">
      <path
         id="path4214"
         d="m 377.23198,375.4947 -8.22852,-0.0117 -61.42383,-85.31054 35.50587,-4.30665 -57.88868,-55.7207 48.36914,-8.88086 -71.39844,-51.14648 34.85744,-8.87891 -61.56642,-51.14648 29.43165,-8.88282 -46.32813,-51.14648 112.20507,-17.56836 0,-25.77344 0,-2.27343 38.99219,0 0,115.96679 a 34.933069,34.933069 0 0 0 -27.45898,34.09961 34.933069,34.933069 0 0 0 27.45898,34.08008 l 0,2.13867 14.94531,0 0,-2.11718 a 34.933069,34.933069 0 0 0 27.46094,-34.10157 34.933069,34.933069 0 0 0 -27.46094,-34.08008 l 0,-115.98632 38.99414,0 0,2.27343 0,25.77344 112.20508,17.56836 -46.33008,51.14648 29.43164,8.88282 -61.56445,51.14648 34.85742,8.87891 -71.39842,51.14648 48.36717,8.88086 -57.88671,55.7207 35.50585,4.30665 -61.42381,85.31054 -8.23048,0.0117 z m 0,-82.32226 c 8.35411,0 8.35938,-6 8.35938,-6 l 0,-22.2168 2,-0.10742 0,-6.10938 -10.35938,0 -10.35741,0 0,6.10938 2,0.10742 0,22.2168 c 0,0 0.003,6 8.35741,6 z"
         style="color:#000000;clip-rule:nonzero;display:inline;overflow:visible;visibility:visible;opacity:1;isolation:auto;mix-blend-mode:normal;color-interpolation:sRGB;color-interpolation-filters:linearRGB;solid-color:#000000;solid-opacity:1;fill:none;fill-opacity:1;fill-rule:nonzero;stroke:#000000;stroke-width:0.99999988;stroke-linecap:butt;stroke-linejoin:round;stroke-miterlimit:4;stroke-dasharray:none;stroke-dashoffset:0;stroke-opacity:1;color-rendering:auto;image-rendering:auto;shape-rendering:auto;text-rendering:auto;enable-background:accumulate" />
    </g>
  </g>
</svg>
