  0
SECTION
  2
HEADER
  9
$ACADVER
  1
AC1014
  9
$HANDSEED
  5
FFFF
  9
$MEASUREMENT
 70
     1
  0
ENDSEC
  0
SECTION
  2
TABLES
  0
TABLE
  2
VPORT
  5
8
330
0
100
AcDbSymbolTable
 70
     4
  0
VPORT
  5
2E
330
8
100
AcDbSymbolTableRecord
100
AcDbViewportTableRecord
  2
*ACTIVE
 70
     0
 10
0.0
 20
0.0
 11
1.0
 21
1.0
 12
210.0
 22
148.5
 13
0.0
 23
0.0
 14
10.0
 24
10.0
 15
10.0
 25
10.0
 16
0.0
 26
0.0
 36
1.0
 17
0.0
 27
0.0
 37
0.0
 40
341.0
 41
1.24
 42
50.0
 43
0.0
 44
0.0
 50
0.0
 51
0.0
 71
     0
 72
   100
 73
     1
 74
     3
 75
     0
 76
     0
 77
     0
 78
     0
  0
ENDTAB
  0
TABLE
  2
LTYPE
  5
5
330
0
100
AcDbSymbolTable
 70
     1
  0
LTYPE
  5
14
330
5
100
AcDbSymbolTableRecord
100
AcDbLinetypeTableRecord
  2
BYBLOCK
 70
     0
  3

 72
    65
 73
     0
 40
0.0
  0
LTYPE
  5
15
330
5
100
AcDbSymbolTableRecord
100
AcDbLinetypeTableRecord
  2
BYLAYER
 70
     0
  3

 72
    65
 73
     0
 40
0.0
  0
LTYPE
  5
16
330
5
100
AcDbSymbolTableRecord
100
AcDbLinetypeTableRecord
  2
CONTINUOUS
 70
     0
  3
Solid line
 72
    65
 73
     0
 40
0.0
  0
ENDTAB
  0
TABLE
  2
LAYER
  5
2
100
AcDbSymbolTable
 70
2
  0
LAYER
  5
50
100
AcDbSymbolTableRecord
100
AcDbLayerTableRecord
  2
0
 70
0
  6
CONTINUOUS
  0
LAYER
  5
51
100
AcDbSymbolTableRecord
100
AcDbLayerTableRecord
  2
Copie_de_objets_non_regroupes
 70
0
  6
CONTINUOUS
  0
ENDTAB
  0
TABLE
  2
STYLE
  5
3
330
0
100
AcDbSymbolTable
 70
     1
  0
STYLE
  5
11
330
3
100
AcDbSymbolTableRecord
100
AcDbTextStyleTableRecord
  2
STANDARD
 70
     0
 40
0.0
 41
1.0
 50
0.0
 71
     0
 42
2.5
  3
txt
  4

  0
ENDTAB
  0
TABLE
  2
VIEW
  5
6
330
0
100
AcDbSymbolTable
 70
     0
  0
ENDTAB
  0
TABLE
  2
UCS
  5
7
330
0
100
AcDbSymbolTable
 70
     0
  0
ENDTAB
  0
TABLE
  2
APPID
  5
9
330
0
100
AcDbSymbolTable
 70
     2
  0
APPID
  5
12
330
9
100
AcDbSymbolTableRecord
100
AcDbRegAppTableRecord
  2
ACAD
 70
     0
  0
ENDTAB
  0
TABLE
  2
DIMSTYLE
  5
A
330
0
100
AcDbSymbolTable
 70
     1
  0
DIMSTYLE
105
27
330
A
100
AcDbSymbolTableRecord
100
AcDbDimStyleTableRecord
  2
ISO-25
 70
     0
  3

  4

  5

  6

  7

 40
1.0
 41
2.5
 42
0.625
 43
3.75
 44
1.25
 45
0.0
 46
0.0
 47
0.0
 48
0.0
140
2.5
141
2.5
142
0.0
143
0.03937007874016
144
1.0
145
0.0
146
1.0
147
0.625
 71
     0
 72
     0
 73
     0
 74
     0
 75
     0
 76
     0
 77
     1
 78
     8
170
     0
171
     3
172
     1
173
     0
174
     0
175
     0
176
     0
177
     0
178
     0
270
     2
271
     2
272
     2
273
     2
274
     3
340
11
275
     0
280
     0
281
     0
282
     0
283
     0
284
     8
285
     0
286
     0
287
     3
288
     0
  0
ENDTAB
  0
TABLE
  2
BLOCK_RECORD
  5
1
330
0
100
AcDbSymbolTable
 70
     1
  0
BLOCK_RECORD
  5
1F
330
1
100
AcDbSymbolTableRecord
100
AcDbBlockTableRecord
  2
*MODEL_SPACE
  0
BLOCK_RECORD
  5
1B
330
1
100
AcDbSymbolTableRecord
100
AcDbBlockTableRecord
  2
*PAPER_SPACE
  0
ENDTAB
  0
ENDSEC
  0
SECTION
  2
BLOCKS
  0
BLOCK
  5
20
330
1F
100
AcDbEntity
  8
0
100
AcDbBlockBegin
  2
*MODEL_SPACE
 70
     0
 10
0.0
 20
0.0
 30
0.0
  3
*MODEL_SPACE
  1

  0
ENDBLK
  5
21
330
1F
100
AcDbEntity
  8
0
100
AcDbBlockEnd
  0
BLOCK
  5
1C
330
1B
100
AcDbEntity
 67
     1
  8
0
100
AcDbBlockBegin
  2
*PAPER_SPACE
  1

  0
ENDBLK
  5
1D
330
1B
100
AcDbEntity
 67
     1
  8
0
100
AcDbBlockEnd
  0
ENDSEC
  0
SECTION
  2
ENTITIES
  0
LINE
  5
100
100
AcDbEntity
  8
Copie_de_objets_non_regroupes
 62
7
100
AcDbLine
 10
44.004984
 20
71.997885
 30
0.0
 11
45.929324
 21
71.997885
 31
0.0
  0
LINE
  5
101
100
AcDbEntity
  8
Copie_de_objets_non_regroupes
 62
7
100
AcDbLine
 10
45.929324
 20
71.997885
 30
0.0
 11
45.929324
 21
52.683206
 31
0.0
  0
LINE
  5
102
100
AcDbEntity
  8
Copie_de_objets_non_regroupes
 62
7
100
AcDbLine
 10
45.929324
 20
52.683206
 30
0.0
 11
44.004984
 21
52.683206
 31
0.0
  0
LINE
  5
103
100
AcDbEntity
  8
Copie_de_objets_non_regroupes
 62
7
100
AcDbLine
 10
44.004984
 20
52.683206
 30
0.0
 11
44.004984
 21
71.997885
 31
0.0
  0
LINE
  5
104
100
AcDbEntity
  8
Copie_de_objets_non_regroupes
 62
7
100
AcDbLine
 10
99.758235
 20
0.175515
 30
0.0
 11
82.987509
 21
24.251518
 31
0.0
  0
LINE
  5
105
100
AcDbEntity
  8
Copie_de_objets_non_regroupes
 62
7
100
AcDbLine
 10
82.987509
 20
24.251518
 30
0.0
 11
93.008052
 21
25.467500
 31
0.0
  0
LINE
  5
106
100
AcDbEntity
  8
Copie_de_objets_non_regroupes
 62
7
100
AcDbLine
 10
93.008052
 20
25.467500
 30
0.0
 11
76.670580
 21
41.193120
 31
0.0
  0
LINE
  5
107
100
AcDbEntity
  8
Copie_de_objets_non_regroupes
 62
7
100
AcDbLine
 10
76.670580
 20
41.193120
 30
0.0
 11
90.321429
 21
43.699496
 31
0.0
  0
LINE
  5
108
100
AcDbEntity
  8
Copie_de_objets_non_regroupes
 62
7
100
AcDbLine
 10
90.321429
 20
43.699496
 30
0.0
 11
70.171203
 21
58.134169
 31
0.0
  0
LINE
  5
109
100
AcDbEntity
  8
Copie_de_objets_non_regroupes
 62
7
100
AcDbLine
 10
70.171203
 20
58.134169
 30
0.0
 11
80.008741
 21
60.639995
 31
0.0
  0
LINE
  5
10a
100
AcDbEntity
  8
Copie_de_objets_non_regroupes
 62
7
100
AcDbLine
 10
80.008741
 20
60.639995
 30
0.0
 11
62.633332
 21
75.074668
 31
0.0
  0
LINE
  5
10b
100
AcDbEntity
  8
Copie_de_objets_non_regroupes
 62
7
100
AcDbLine
 10
62.633332
 20
75.074668
 30
0.0
 11
70.940148
 21
77.581598
 31
0.0
  0
LINE
  5
10c
100
AcDbEntity
  8
Copie_de_objets_non_regroupes
 62
7
100
AcDbLine
 10
70.940148
 20
77.581598
 30
0.0
 11
57.864770
 21
92.016271
 31
0.0
  0
LINE
  5
10d
100
AcDbEntity
  8
Copie_de_objets_non_regroupes
 62
7
100
AcDbLine
 10
57.864770
 20
92.016271
 30
0.0
 11
89.531537
 21
96.974452
 31
0.0
  0
LINE
  5
10e
100
AcDbEntity
  8
Copie_de_objets_non_regroupes
 62
7
100
AcDbLine
 10
89.531537
 20
96.974452
 30
0.0
 11
89.531537
 21
104.248290
 31
0.0
  0
LINE
  5
10f
100
AcDbEntity
  8
Copie_de_objets_non_regroupes
 62
7
100
AcDbLine
 10
89.531537
 20
104.248290
 30
0.0
 11
89.531537
 21
104.889902
 31
0.0
  0
LINE
  5
110
100
AcDbEntity
  8
Copie_de_objets_non_regroupes
 62
7
100
AcDbLine
 10
89.531537
 20
104.889902
 30
0.0
 11
102.644948
 21
104.889902
 31
0.0
  0
LINE
  5
111
100
AcDbEntity
  8
Copie_de_objets_non_regroupes
 62
7
100
AcDbLine
 10
102.644948
 20
104.889902
 30
0.0
 11
115.758911
 21
104.889902
 31
0.0
  0
LINE
  5
112
100
AcDbEntity
  8
Copie_de_objets_non_regroupes
 62
7
100
AcDbLine
 10
115.758911
 20
104.889902
 30
0.0
 11
115.758911
 21
104.248290
 31
0.0
  0
LINE
  5
113
100
AcDbEntity
  8
Copie_de_objets_non_regroupes
 62
7
100
AcDbLine
 10
115.758911
 20
104.248290
 30
0.0
 11
115.758911
 21
96.974452
 31
0.0
  0
LINE
  5
114
100
AcDbEntity
  8
Copie_de_objets_non_regroupes
 62
7
100
AcDbLine
 10
115.758911
 20
96.974452
 30
0.0
 11
147.425678
 21
92.016271
 31
0.0
  0
LINE
  5
115
100
AcDbEntity
  8
Copie_de_objets_non_regroupes
 62
7
100
AcDbLine
 10
147.425678
 20
92.016271
 30
0.0
 11
134.350300
 21
77.581598
 31
0.0
  0
LINE
  5
116
100
AcDbEntity
  8
Copie_de_objets_non_regroupes
 62
7
100
AcDbLine
 10
134.350300
 20
77.581598
 30
0.0
 11
142.656563
 21
75.074668
 31
0.0
  0
LINE
  5
117
100
AcDbEntity
  8
Copie_de_objets_non_regroupes
 62
7
100
AcDbLine
 10
142.656563
 20
75.074668
 30
0.0
 11
125.281154
 21
60.639995
 31
0.0
  0
LINE
  5
118
100
AcDbEntity
  8
Copie_de_objets_non_regroupes
 62
7
100
AcDbLine
 10
125.281154
 20
60.639995
 30
0.0
 11
135.119245
 21
58.134169
 31
0.0
  0
LINE
  5
119
100
AcDbEntity
  8
Copie_de_objets_non_regroupes
 62
7
100
AcDbLine
 10
135.119245
 20
58.134169
 30
0.0
 11
114.968469
 21
43.699496
 31
0.0
  0
LINE
  5
11a
100
AcDbEntity
  8
Copie_de_objets_non_regroupes
 62
7
100
AcDbLine
 10
114.968469
 20
43.699496
 30
0.0
 11
128.619315
 21
41.193120
 31
0.0
  0
LINE
  5
11b
100
AcDbEntity
  8
Copie_de_objets_non_regroupes
 62
7
100
AcDbLine
 10
128.619315
 20
41.193120
 30
0.0
 11
112.281846
 21
25.467500
 31
0.0
  0
LINE
  5
11c
100
AcDbEntity
  8
Copie_de_objets_non_regroupes
 62
7
100
AcDbLine
 10
112.281846
 20
25.467500
 30
0.0
 11
122.302386
 21
24.251518
 31
0.0
  0
LINE
  5
11d
100
AcDbEntity
  8
Copie_de_objets_non_regroupes
 62
7
100
AcDbLine
 10
122.302386
 20
24.251518
 30
0.0
 11
105.532214
 21
0.175515
 31
0.0
  0
LINE
  5
11e
100
AcDbEntity
  8
Copie_de_objets_non_regroupes
 62
7
100
AcDbLine
 10
105.532214
 20
0.175515
 30
0.0
 11
105.318343
 21
0.175515
 31
0.0
  0
LINE
  5
11f
100
AcDbEntity
  8
Copie_de_objets_non_regroupes
 62
7
100
AcDbLine
 10
105.318343
 20
0.175515
 30
0.0
 11
105.318343
 21
24.326484
 31
0.0
  0
SPLINE
  5
120
100
AcDbEntity
  8
Copie_de_objets_non_regroupes
 62
7
100
AcDbSpline
 70
8
 71
3
 72
8
 73
4
 74
0
 40
0
 40
0
 40
0
 40
0
 40
1
 40
1
 40
1
 40
1
 10
105.318343
 20
24.326484
 30
0.0
 10
105.565236
 20
24.724040
 30
0.0
 10
105.568595
 20
25.100391
 30
0.0
 10
105.568595
 20
25.100391
 30
0.0
  0
LINE
  5
121
100
AcDbEntity
  8
Copie_de_objets_non_regroupes
 62
7
100
AcDbLine
 10
105.568595
 20
25.100391
 30
0.0
 11
105.568595
 21
31.370463
 31
0.0
  0
LINE
  5
122
100
AcDbEntity
  8
Copie_de_objets_non_regroupes
 62
7
100
AcDbLine
 10
105.568595
 20
31.370463
 30
0.0
 11
106.133039
 21
31.400780
 31
0.0
  0
LINE
  5
123
100
AcDbEntity
  8
Copie_de_objets_non_regroupes
 62
7
100
AcDbLine
 10
106.133039
 20
31.400780
 30
0.0
 11
106.133039
 21
33.124982
 31
0.0
  0
LINE
  5
124
100
AcDbEntity
  8
Copie_de_objets_non_regroupes
 62
7
100
AcDbLine
 10
106.133039
 20
33.124982
 30
0.0
 11
104.753898
 21
33.124982
 31
0.0
  0
LINE
  5
125
100
AcDbEntity
  8
Copie_de_objets_non_regroupes
 62
7
100
AcDbLine
 10
104.753898
 20
33.124982
 30
0.0
 11
104.189454
 21
52.317747
 31
0.0
  0
LINE
  5
126
100
AcDbEntity
  8
Copie_de_objets_non_regroupes
 62
7
100
AcDbLine
 10
104.189454
 20
52.317747
 30
0.0
 11
100.535997
 21
52.317747
 31
0.0
  0
LINE
  5
127
100
AcDbEntity
  8
Copie_de_objets_non_regroupes
 62
7
100
AcDbLine
 10
100.535997
 20
52.317747
 30
0.0
 11
100.535997
 21
33.124982
 31
0.0
  0
LINE
  5
128
100
AcDbEntity
  8
Copie_de_objets_non_regroupes
 62
7
100
AcDbLine
 10
100.535997
 20
33.124982
 30
0.0
 11
99.157409
 21
33.124982
 31
0.0
  0
LINE
  5
129
100
AcDbEntity
  8
Copie_de_objets_non_regroupes
 62
7
100
AcDbLine
 10
99.157409
 20
33.124982
 30
0.0
 11
99.157409
 21
31.400780
 31
0.0
  0
LINE
  5
12a
100
AcDbEntity
  8
Copie_de_objets_non_regroupes
 62
7
100
AcDbLine
 10
99.157409
 20
31.400780
 30
0.0
 11
99.721853
 21
31.370463
 31
0.0
  0
LINE
  5
12b
100
AcDbEntity
  8
Copie_de_objets_non_regroupes
 62
7
100
AcDbLine
 10
99.721853
 20
31.370463
 30
0.0
 11
99.721853
 21
25.100391
 31
0.0
  0
SPLINE
  5
12c
100
AcDbEntity
  8
Copie_de_objets_non_regroupes
 62
7
100
AcDbSpline
 70
8
 71
3
 72
8
 73
4
 74
0
 40
0
 40
0
 40
0
 40
0
 40
1
 40
1
 40
1
 40
1
 10
99.721853
 20
25.100391
 30
0.0
 10
99.721853
 20
25.100391
 30
0.0
 10
99.725127
 20
24.724398
 30
0.0
 10
99.971552
 20
24.327035
 30
0.0
  0
LINE
  5
12d
100
AcDbEntity
  8
Copie_de_objets_non_regroupes
 62
7
100
AcDbLine
 10
99.971552
 20
24.327035
 30
0.0
 11
99.971552
 21
0.175515
 31
0.0
  0
LINE
  5
12e
100
AcDbEntity
  8
Copie_de_objets_non_regroupes
 62
7
100
AcDbLine
 10
99.971552
 20
0.175515
 30
0.0
 11
99.758235
 21
0.175515
 31
0.0
  0
LINE
  5
12f
100
AcDbEntity
  8
Copie_de_objets_non_regroupes
 62
7
100
AcDbLine
 10
44.966882
 20
104.891559
 30
0.0
 11
42.644610
 21
104.888257
 31
0.0
  0
LINE
  5
130
100
AcDbEntity
  8
Copie_de_objets_non_regroupes
 62
7
100
AcDbLine
 10
42.644610
 20
104.888257
 30
0.0
 11
25.309441
 21
80.811727
 31
0.0
  0
LINE
  5
131
100
AcDbEntity
  8
Copie_de_objets_non_regroupes
 62
7
100
AcDbLine
 10
25.309441
 20
80.811727
 30
0.0
 11
35.329986
 21
79.596295
 31
0.0
  0
LINE
  5
132
100
AcDbEntity
  8
Copie_de_objets_non_regroupes
 62
7
100
AcDbLine
 10
35.329986
 20
79.596295
 30
0.0
 11
18.992514
 21
63.870675
 31
0.0
  0
LINE
  5
133
100
AcDbEntity
  8
Copie_de_objets_non_regroupes
 62
7
100
AcDbLine
 10
18.992514
 20
63.870675
 30
0.0
 11
32.643360
 21
61.364299
 31
0.0
  0
LINE
  5
134
100
AcDbEntity
  8
Copie_de_objets_non_regroupes
 62
7
100
AcDbLine
 10
32.643360
 20
61.364299
 30
0.0
 11
12.493134
 21
46.929626
 31
0.0
  0
LINE
  5
135
100
AcDbEntity
  8
Copie_de_objets_non_regroupes
 62
7
100
AcDbLine
 10
12.493134
 20
46.929626
 30
0.0
 11
22.330678
 21
44.423800
 31
0.0
  0
LINE
  5
136
100
AcDbEntity
  8
Copie_de_objets_non_regroupes
 62
7
100
AcDbLine
 10
22.330678
 20
44.423800
 30
0.0
 11
4.955266
 21
29.989127
 31
0.0
  0
LINE
  5
137
100
AcDbEntity
  8
Copie_de_objets_non_regroupes
 62
7
100
AcDbLine
 10
4.955266
 20
29.989127
 30
0.0
 11
13.261532
 21
27.482197
 31
0.0
  0
LINE
  5
138
100
AcDbEntity
  8
Copie_de_objets_non_regroupes
 62
7
100
AcDbLine
 10
13.261532
 20
27.482197
 30
0.0
 11
0.186704
 21
13.047524
 31
0.0
  0
LINE
  5
139
100
AcDbEntity
  8
Copie_de_objets_non_regroupes
 62
7
100
AcDbLine
 10
0.186704
 20
13.047524
 30
0.0
 11
31.853468
 21
8.089343
 31
0.0
  0
LINE
  5
13a
100
AcDbEntity
  8
Copie_de_objets_non_regroupes
 62
7
100
AcDbLine
 10
31.853468
 20
8.089343
 30
0.0
 11
31.853468
 21
0.815505
 31
0.0
  0
LINE
  5
13b
100
AcDbEntity
  8
Copie_de_objets_non_regroupes
 62
7
100
AcDbLine
 10
31.853468
 20
0.815505
 30
0.0
 11
31.853468
 21
0.173893
 31
0.0
  0
LINE
  5
13c
100
AcDbEntity
  8
Copie_de_objets_non_regroupes
 62
7
100
AcDbLine
 10
31.853468
 20
0.173893
 30
0.0
 11
42.857931
 21
0.173893
 31
0.0
  0
LINE
  5
13d
100
AcDbEntity
  8
Copie_de_objets_non_regroupes
 62
7
100
AcDbLine
 10
42.857931
 20
0.173893
 30
0.0
 11
42.857931
 21
32.902298
 31
0.0
  0
SPLINE
  5
13e
100
AcDbEntity
  8
Copie_de_objets_non_regroupes
 62
7
100
AcDbSpline
 70
8
 71
3
 72
8
 73
4
 74
0
 40
0
 40
0
 40
0
 40
0
 40
1
 40
1
 40
1
 40
1
 10
42.857931
 20
32.902298
 30
0.0
 10
38.335624
 20
33.892801
 30
0.0
 10
35.111648
 20
37.896457
 30
0.0
 10
35.108396
 20
42.525965
 30
0.0
  0
SPLINE
  5
13f
100
AcDbEntity
  8
Copie_de_objets_non_regroupes
 62
7
100
AcDbSpline
 70
8
 71
3
 72
8
 73
4
 74
0
 40
0
 40
0
 40
0
 40
0
 40
1
 40
1
 40
1
 40
1
 10
35.108396
 20
42.525965
 30
0.0
 10
35.114234
 20
47.153408
 30
0.0
 10
38.337639
 20
51.154062
 30
0.0
 10
42.857931
 20
52.144121
 30
0.0
  0
LINE
  5
140
100
AcDbEntity
  8
Copie_de_objets_non_regroupes
 62
7
100
AcDbLine
 10
42.857931
 20
52.144121
 30
0.0
 11
42.857931
 21
52.747702
 31
0.0
  0
LINE
  5
141
100
AcDbEntity
  8
Copie_de_objets_non_regroupes
 62
7
100
AcDbLine
 10
42.857931
 20
52.747702
 30
0.0
 11
47.075829
 21
52.747702
 31
0.0
  0
SPLINE
  5
142
100
AcDbEntity
  8
Copie_de_objets_non_regroupes
 62
7
100
AcDbSpline
 70
8
 71
3
 72
8
 73
4
 74
0
 40
0
 40
0
 40
0
 40
0
 40
1
 40
1
 40
1
 40
1
 10
47.075829
 20
52.747702
 30
0.0
 10
47.075829
 20
52.747702
 30
0.0
 10
47.075829
 20
52.150186
 30
0.0
 10
47.075829
 20
52.150186
 30
0.0
  0
SPLINE
  5
143
100
AcDbEntity
  8
Copie_de_objets_non_regroupes
 62
7
100
AcDbSpline
 70
8
 71
3
 72
8
 73
4
 74
0
 40
0
 40
0
 40
0
 40
0
 40
1
 40
1
 40
1
 40
1
 10
47.075829
 20
52.150186
 30
0.0
 10
51.598558
 20
51.159863
 30
0.0
 10
54.822868
 20
47.155848
 30
0.0
 10
54.825917
 20
42.525965
 30
0.0
  0
SPLINE
  5
144
100
AcDbEntity
  8
Copie_de_objets_non_regroupes
 62
7
100
AcDbSpline
 70
8
 71
3
 72
8
 73
4
 74
0
 40
0
 40
0
 40
0
 40
0
 40
1
 40
1
 40
1
 40
1
 10
54.825917
 20
42.525965
 30
0.0
 10
54.820022
 20
37.898357
 30
0.0
 10
51.596341
 20
33.897645
 30
0.0
 10
47.075829
 20
32.907810
 30
0.0
  0
LINE
  5
145
100
AcDbEntity
  8
Copie_de_objets_non_regroupes
 62
7
100
AcDbLine
 10
47.075829
 20
32.907810
 30
0.0
 11
47.075829
 21
0.173893
 31
0.0
  0
LINE
  5
146
100
AcDbEntity
  8
Copie_de_objets_non_regroupes
 62
7
100
AcDbLine
 10
47.075829
 20
0.173893
 30
0.0
 11
58.080842
 21
0.173893
 31
0.0
  0
LINE
  5
147
100
AcDbEntity
  8
Copie_de_objets_non_regroupes
 62
7
100
AcDbLine
 10
58.080842
 20
0.173893
 30
0.0
 11
58.080842
 21
0.815505
 31
0.0
  0
LINE
  5
148
100
AcDbEntity
  8
Copie_de_objets_non_regroupes
 62
7
100
AcDbLine
 10
58.080842
 20
0.815505
 30
0.0
 11
58.080842
 21
8.089343
 31
0.0
  0
LINE
  5
149
100
AcDbEntity
  8
Copie_de_objets_non_regroupes
 62
7
100
AcDbLine
 10
58.080842
 20
8.089343
 30
0.0
 11
89.747609
 21
13.047524
 31
0.0
  0
LINE
  5
14a
100
AcDbEntity
  8
Copie_de_objets_non_regroupes
 62
7
100
AcDbLine
 10
89.747609
 20
13.047524
 30
0.0
 11
76.672231
 21
27.482197
 31
0.0
  0
LINE
  5
14b
100
AcDbEntity
  8
Copie_de_objets_non_regroupes
 62
7
100
AcDbLine
 10
76.672231
 20
27.482197
 30
0.0
 11
84.978494
 21
29.989127
 31
0.0
  0
LINE
  5
14c
100
AcDbEntity
  8
Copie_de_objets_non_regroupes
 62
7
100
AcDbLine
 10
84.978494
 20
29.989127
 30
0.0
 11
67.603638
 21
44.423800
 31
0.0
  0
LINE
  5
14d
100
AcDbEntity
  8
Copie_de_objets_non_regroupes
 62
7
100
AcDbLine
 10
67.603638
 20
44.423800
 30
0.0
 11
77.441177
 21
46.929626
 31
0.0
  0
LINE
  5
14e
100
AcDbEntity
  8
Copie_de_objets_non_regroupes
 62
7
100
AcDbLine
 10
77.441177
 20
46.929626
 30
0.0
 11
57.290956
 21
61.364299
 31
0.0
  0
LINE
  5
14f
100
AcDbEntity
  8
Copie_de_objets_non_regroupes
 62
7
100
AcDbLine
 10
57.290956
 20
61.364299
 30
0.0
 11
70.941246
 21
63.870675
 31
0.0
  0
LINE
  5
150
100
AcDbEntity
  8
Copie_de_objets_non_regroupes
 62
7
100
AcDbLine
 10
70.941246
 20
63.870675
 30
0.0
 11
54.604330
 21
79.596295
 31
0.0
  0
LINE
  5
151
100
AcDbEntity
  8
Copie_de_objets_non_regroupes
 62
7
100
AcDbLine
 10
54.604330
 20
79.596295
 30
0.0
 11
64.624870
 21
80.811727
 31
0.0
  0
LINE
  5
152
100
AcDbEntity
  8
Copie_de_objets_non_regroupes
 62
7
100
AcDbLine
 10
64.624870
 20
80.811727
 30
0.0
 11
47.289706
 21
104.888257
 31
0.0
  0
LINE
  5
153
100
AcDbEntity
  8
Copie_de_objets_non_regroupes
 62
7
100
AcDbLine
 10
47.289706
 20
104.888257
 30
0.0
 11
44.966882
 21
104.891559
 31
0.0
  0
LINE
  5
154
100
AcDbEntity
  8
Copie_de_objets_non_regroupes
 62
7
100
AcDbLine
 10
44.966882
 20
104.891559
 30
0.0
 11
44.966882
 21
104.891559
 31
0.0
  0
SPLINE
  5
155
100
AcDbEntity
  8
Copie_de_objets_non_regroupes
 62
7
100
AcDbSpline
 70
8
 71
3
 72
8
 73
4
 74
0
 40
0
 40
0
 40
0
 40
0
 40
1
 40
1
 40
1
 40
1
 10
44.966882
 20
81.658388
 30
0.0
 10
47.324597
 20
81.658388
 30
0.0
 10
47.326084
 20
79.965055
 30
0.0
 10
47.326084
 20
79.965055
 30
0.0
  0
LINE
  5
156
100
AcDbEntity
  8
Copie_de_objets_non_regroupes
 62
7
100
AcDbLine
 10
47.326084
 20
79.965055
 30
0.0
 11
47.326084
 21
73.694980
 31
0.0
  0
LINE
  5
157
100
AcDbEntity
  8
Copie_de_objets_non_regroupes
 62
7
100
AcDbLine
 10
47.326084
 20
73.694980
 30
0.0
 11
47.890529
 21
73.664664
 31
0.0
  0
LINE
  5
158
100
AcDbEntity
  8
Copie_de_objets_non_regroupes
 62
7
100
AcDbLine
 10
47.890529
 20
73.664664
 30
0.0
 11
47.890529
 21
71.940461
 31
0.0
  0
LINE
  5
159
100
AcDbEntity
  8
Copie_de_objets_non_regroupes
 62
7
100
AcDbLine
 10
47.890529
 20
71.940461
 30
0.0
 11
44.966882
 21
71.940461
 31
0.0
  0
LINE
  5
15a
100
AcDbEntity
  8
Copie_de_objets_non_regroupes
 62
7
100
AcDbLine
 10
44.966882
 20
71.940461
 30
0.0
 11
42.043790
 21
71.940461
 31
0.0
  0
LINE
  5
15b
100
AcDbEntity
  8
Copie_de_objets_non_regroupes
 62
7
100
AcDbLine
 10
42.043790
 20
71.940461
 30
0.0
 11
42.043790
 21
73.664664
 31
0.0
  0
LINE
  5
15c
100
AcDbEntity
  8
Copie_de_objets_non_regroupes
 62
7
100
AcDbLine
 10
42.043790
 20
73.664664
 30
0.0
 11
42.608235
 21
73.694980
 31
0.0
  0
LINE
  5
15d
100
AcDbEntity
  8
Copie_de_objets_non_regroupes
 62
7
100
AcDbLine
 10
42.608235
 20
73.694980
 30
0.0
 11
42.608235
 21
79.965055
 31
0.0
  0
SPLINE
  5
15e
100
AcDbEntity
  8
Copie_de_objets_non_regroupes
 62
7
100
AcDbSpline
 70
8
 71
3
 72
8
 73
4
 74
0
 40
0
 40
0
 40
0
 40
0
 40
1
 40
1
 40
1
 40
1
 10
42.608235
 20
79.965055
 30
0.0
 10
42.608235
 20
79.965055
 30
0.0
 10
42.609081
 20
81.658388
 30
0.0
 10
44.966882
 20
81.658388
 30
0.0
  0
LINE
  5
15f
100
AcDbEntity
  8
Copie_de_objets_non_regroupes
 62
7
100
AcDbLine
 10
44.966882
 20
81.658388
 30
0.0
 11
44.966882
 21
81.658388
 31
0.0
  0
ENDSEC
  0
SECTION
  2
OBJECTS
  0
DICTIONARY
  5
C
330
0
100
AcDbDictionary
  3
ACAD_GROUP
350
D
  3
ACAD_MLINESTYLE
350
17
  0
DICTIONARY
  5
D
330
C
100
AcDbDictionary
  0
DICTIONARY
  5
1A
330
C
100
AcDbDictionary
  0
DICTIONARY
  5
17
330
C
100
AcDbDictionary
  3
STANDARD
350
18
  0
DICTIONARY
  5
19
330
C
100
AcDbDictionary
  0
ENDSEC
  0
EOF
